<?xml version="1.0" encoding="UTF-8" standalone="no"?>
<!-- Created with Inkscape (http://www.inkscape.org/) -->

<svg
   width="210mm"
   height="100mm"
   viewBox="0 0 210 100"
   version="1.1"
   id="svg5"
   xml:space="preserve"
   inkscape:version="1.2.2 (732a01da63, 2022-12-09)"
   sodipodi:docname="singlettriplet.svg"
   xmlns:inkscape="http://www.inkscape.org/namespaces/inkscape"
   xmlns:sodipodi="http://sodipodi.sourceforge.net/DTD/sodipodi-0.dtd"
   xmlns:xlink="http://www.w3.org/1999/xlink"
   xmlns="http://www.w3.org/2000/svg"
   xmlns:svg="http://www.w3.org/2000/svg"><sodipodi:namedview
     id="namedview7"
     pagecolor="#ffffff"
     bordercolor="#000000"
     borderopacity="0.25"
     inkscape:showpageshadow="2"
     inkscape:pageopacity="0.0"
     inkscape:pagecheckerboard="0"
     inkscape:deskcolor="#d1d1d1"
     inkscape:document-units="mm"
     showgrid="false"
     inkscape:zoom="1.4912879"
     inkscape:cx="155.23495"
     inkscape:cy="184.40437"
     inkscape:window-width="1920"
     inkscape:window-height="1017"
     inkscape:window-x="-8"
     inkscape:window-y="-8"
     inkscape:window-maximized="1"
     inkscape:current-layer="layer1" /><defs
     id="defs2"><style
       type="text/css"
       id="style11">*{stroke-linejoin: round; stroke-linecap: butt}</style><path
       id="mab43da4b12"
       d="M 0 0  L 0 3.5  "
       style="stroke: #000000; stroke-width: 0.8" /><path
       id="DejaVuSans-30"
       d="M 2034 4250  Q 1547 4250 1301 3770  Q 1056 3291 1056 2328  Q 1056 1369 1301 889  Q 1547 409 2034 409  Q 2525 409 2770 889  Q 3016 1369 3016 2328  Q 3016 3291 2770 3770  Q 2525 4250 2034 4250  z M 2034 4750  Q 2819 4750 3233 4129  Q 3647 3509 3647 2328  Q 3647 1150 3233 529  Q 2819 -91 2034 -91  Q 1250 -91 836 529  Q 422 1150 422 2328  Q 422 3509 836 4129  Q 1250 4750 2034 4750  z "
       transform="scale(0.015625)" /><path
       id="DejaVuSans-35"
       d="M 691 4666  L 3169 4666  L 3169 4134  L 1269 4134  L 1269 2991  Q 1406 3038 1543 3061  Q 1681 3084 1819 3084  Q 2600 3084 3056 2656  Q 3513 2228 3513 1497  Q 3513 744 3044 326  Q 2575 -91 1722 -91  Q 1428 -91 1123 -41  Q 819 9 494 109  L 494 744  Q 775 591 1075 516  Q 1375 441 1709 441  Q 2250 441 2565 725  Q 2881 1009 2881 1497  Q 2881 1984 2565 2268  Q 2250 2553 1709 2553  Q 1456 2553 1204 2497  Q 953 2441 691 2322  L 691 4666  z "
       transform="scale(0.015625)" /><path
       id="DejaVuSans-31"
       d="M 794 531  L 1825 531  L 1825 4091  L 703 3866  L 703 4441  L 1819 4666  L 2450 4666  L 2450 531  L 3481 531  L 3481 0  L 794 0  L 794 531  z "
       transform="scale(0.015625)" /><path
       id="DejaVuSans-74"
       d="M 1172 4494  L 1172 3500  L 2356 3500  L 2356 3053  L 1172 3053  L 1172 1153  Q 1172 725 1289 603  Q 1406 481 1766 481  L 2356 481  L 2356 0  L 1766 0  Q 1100 0 847 248  Q 594 497 594 1153  L 594 3053  L 172 3053  L 172 3500  L 594 3500  L 594 4494  L 1172 4494  z "
       transform="scale(0.015625)" /><path
       id="DejaVuSans-69"
       d="M 603 3500  L 1178 3500  L 1178 0  L 603 0  L 603 3500  z M 603 4863  L 1178 4863  L 1178 4134  L 603 4134  L 603 4863  z "
       transform="scale(0.015625)" /><path
       id="DejaVuSans-6d"
       d="M 3328 2828  Q 3544 3216 3844 3400  Q 4144 3584 4550 3584  Q 5097 3584 5394 3201  Q 5691 2819 5691 2113  L 5691 0  L 5113 0  L 5113 2094  Q 5113 2597 4934 2840  Q 4756 3084 4391 3084  Q 3944 3084 3684 2787  Q 3425 2491 3425 1978  L 3425 0  L 2847 0  L 2847 2094  Q 2847 2600 2669 2842  Q 2491 3084 2119 3084  Q 1678 3084 1418 2786  Q 1159 2488 1159 1978  L 1159 0  L 581 0  L 581 3500  L 1159 3500  L 1159 2956  Q 1356 3278 1631 3431  Q 1906 3584 2284 3584  Q 2666 3584 2933 3390  Q 3200 3197 3328 2828  z "
       transform="scale(0.015625)" /><path
       id="DejaVuSans-65"
       d="M 3597 1894  L 3597 1613  L 953 1613  Q 991 1019 1311 708  Q 1631 397 2203 397  Q 2534 397 2845 478  Q 3156 559 3463 722  L 3463 178  Q 3153 47 2828 -22  Q 2503 -91 2169 -91  Q 1331 -91 842 396  Q 353 884 353 1716  Q 353 2575 817 3079  Q 1281 3584 2069 3584  Q 2775 3584 3186 3129  Q 3597 2675 3597 1894  z M 3022 2063  Q 3016 2534 2758 2815  Q 2500 3097 2075 3097  Q 1594 3097 1305 2825  Q 1016 2553 972 2059  L 3022 2063  z "
       transform="scale(0.015625)" /><path
       id="DejaVuSans-2f"
       d="M 1625 4666  L 2156 4666  L 531 -594  L 0 -594  L 1625 4666  z "
       transform="scale(0.015625)" /><path
       id="DejaVuSans-6e"
       d="M 3513 2113  L 3513 0  L 2938 0  L 2938 2094  Q 2938 2591 2744 2837  Q 2550 3084 2163 3084  Q 1697 3084 1428 2787  Q 1159 2491 1159 1978  L 1159 0  L 581 0  L 581 3500  L 1159 3500  L 1159 2956  Q 1366 3272 1645 3428  Q 1925 3584 2291 3584  Q 2894 3584 3203 3211  Q 3513 2838 3513 2113  z "
       transform="scale(0.015625)" /><path
       id="DejaVuSans-73"
       d="M 2834 3397  L 2834 2853  Q 2591 2978 2328 3040  Q 2066 3103 1784 3103  Q 1356 3103 1142 2972  Q 928 2841 928 2578  Q 928 2378 1081 2264  Q 1234 2150 1697 2047  L 1894 2003  Q 2506 1872 2764 1633  Q 3022 1394 3022 966  Q 3022 478 2636 193  Q 2250 -91 1575 -91  Q 1294 -91 989 -36  Q 684 19 347 128  L 347 722  Q 666 556 975 473  Q 1284 391 1588 391  Q 1994 391 2212 530  Q 2431 669 2431 922  Q 2431 1156 2273 1281  Q 2116 1406 1581 1522  L 1381 1569  Q 847 1681 609 1914  Q 372 2147 372 2553  Q 372 3047 722 3315  Q 1072 3584 1716 3584  Q 2034 3584 2315 3537  Q 2597 3491 2834 3397  z "
       transform="scale(0.015625)" /><path
       id="m9de421ef55"
       d="M 0 0  L -3.5 0  "
       style="stroke: #000000; stroke-width: 0.8" /><path
       id="DejaVuSans-2212"
       d="M 678 2272  L 4684 2272  L 4684 1741  L 678 1741  L 678 2272  z "
       transform="scale(0.015625)" /><path
       id="DejaVuSans-2e"
       d="M 684 794  L 1344 794  L 1344 0  L 684 0  L 684 794  z "
       transform="scale(0.015625)" /><path
       id="DejaVuSans-70"
       d="M 1159 525  L 1159 -1331  L 581 -1331  L 581 3500  L 1159 3500  L 1159 2969  Q 1341 3281 1617 3432  Q 1894 3584 2278 3584  Q 2916 3584 3314 3078  Q 3713 2572 3713 1747  Q 3713 922 3314 415  Q 2916 -91 2278 -91  Q 1894 -91 1617 61  Q 1341 213 1159 525  z M 3116 1747  Q 3116 2381 2855 2742  Q 2594 3103 2138 3103  Q 1681 3103 1420 2742  Q 1159 2381 1159 1747  Q 1159 1113 1420 752  Q 1681 391 2138 391  Q 2594 391 2855 752  Q 3116 1113 3116 1747  z "
       transform="scale(0.015625)" /><path
       id="DejaVuSans-68"
       d="M 3513 2113  L 3513 0  L 2938 0  L 2938 2094  Q 2938 2591 2744 2837  Q 2550 3084 2163 3084  Q 1697 3084 1428 2787  Q 1159 2491 1159 1978  L 1159 0  L 581 0  L 581 4863  L 1159 4863  L 1159 2956  Q 1366 3272 1645 3428  Q 1925 3584 2291 3584  Q 2894 3584 3203 3211  Q 3513 2838 3513 2113  z "
       transform="scale(0.015625)" /><path
       id="DejaVuSans-61"
       d="M 2194 1759  Q 1497 1759 1228 1600  Q 959 1441 959 1056  Q 959 750 1161 570  Q 1363 391 1709 391  Q 2188 391 2477 730  Q 2766 1069 2766 1631  L 2766 1759  L 2194 1759  z M 3341 1997  L 3341 0  L 2766 0  L 2766 531  Q 2569 213 2275 61  Q 1981 -91 1556 -91  Q 1019 -91 701 211  Q 384 513 384 1019  Q 384 1609 779 1909  Q 1175 2209 1959 2209  L 2766 2209  L 2766 2266  Q 2766 2663 2505 2880  Q 2244 3097 1772 3097  Q 1472 3097 1187 3025  Q 903 2953 641 2809  L 641 3341  Q 956 3463 1253 3523  Q 1550 3584 1831 3584  Q 2591 3584 2966 3190  Q 3341 2797 3341 1997  z "
       transform="scale(0.015625)" /><path
       id="DejaVuSans-3c0"
       d="M 231 3500  L 3584 3500  L 3584 2925  L 3144 2925  L 3144 775  Q 3144 550 3220 451  Q 3297 353 3469 353  Q 3516 353 3584 361  Q 3653 369 3675 372  L 3675 -44  Q 3566 -84 3450 -103  Q 3334 -122 3219 -122  Q 2844 -122 2700 83  Q 2556 288 2556 838  L 2556 2925  L 1266 2925  L 1266 0  L 678 0  L 678 2925  L 231 2925  L 231 3500  z "
       transform="scale(0.015625)" /><path
       id="DejaVuSans-7c"
       d="M 1344 4891  L 1344 -1509  L 813 -1509  L 813 4891  L 1344 4891  z "
       transform="scale(0.015625)" /><path
       id="DejaVuSans-21bf"
       d="M 2947 4688  L 2947 0  L 2416 0  L 2416 3813  L 1684 3081  L 1309 3456  L 2541 4688  L 2947 4688  z "
       transform="scale(0.015625)" /><path
       id="DejaVuSans-21c2"
       d="M 2416 0  L 2416 4688  L 2947 4688  L 2947 875  L 3672 1606  L 4047 1231  L 2822 0  L 2416 0  z "
       transform="scale(0.015625)" /><path
       id="DejaVuSans-2c"
       d="M 750 794  L 1409 794  L 1409 256  L 897 -744  L 494 -744  L 750 256  L 750 794  z "
       transform="scale(0.015625)" /><path
       id="DejaVuSans-27e9"
       d="M 1925 2006  L 1044 -844  L 513 -844  L 1394 2006  L 513 4856  L 1044 4856  L 1925 2006  z "
       transform="scale(0.015625)" /><clipPath
       id="pd1b93ec5dd"><rect
         x="43.2"
         y="25.92"
         width="267.84"
         height="166.32"
         id="rect325" /></clipPath><style
       type="text/css"
       id="style733">*{stroke-linejoin: round; stroke-linecap: butt}</style><path
       id="me92728dfd5"
       d="M 0 0  L 0 3.5  "
       style="stroke: #000000; stroke-width: 0.8" /><path
       id="DejaVuSans-32"
       d="M 1228 531  L 3431 531  L 3431 0  L 469 0  L 469 531  Q 828 903 1448 1529  Q 2069 2156 2228 2338  Q 2531 2678 2651 2914  Q 2772 3150 2772 3378  Q 2772 3750 2511 3984  Q 2250 4219 1831 4219  Q 1534 4219 1204 4116  Q 875 4013 500 3803  L 500 4441  Q 881 4594 1212 4672  Q 1544 4750 1819 4750  Q 2544 4750 2975 4387  Q 3406 4025 3406 3419  Q 3406 3131 3298 2873  Q 3191 2616 2906 2266  Q 2828 2175 2409 1742  Q 1991 1309 1228 531  z "
       transform="scale(0.015625)" /><path
       id="DejaVuSans-2e-5"
       d="M 684 794  L 1344 794  L 1344 0  L 684 0  L 684 794  z "
       transform="scale(0.015625)" /><path
       id="DejaVuSans-35-7"
       d="M 691 4666  L 3169 4666  L 3169 4134  L 1269 4134  L 1269 2991  Q 1406 3038 1543 3061  Q 1681 3084 1819 3084  Q 2600 3084 3056 2656  Q 3513 2228 3513 1497  Q 3513 744 3044 326  Q 2575 -91 1722 -91  Q 1428 -91 1123 -41  Q 819 9 494 109  L 494 744  Q 775 591 1075 516  Q 1375 441 1709 441  Q 2250 441 2565 725  Q 2881 1009 2881 1497  Q 2881 1984 2565 2268  Q 2250 2553 1709 2553  Q 1456 2553 1204 2497  Q 953 2441 691 2322  L 691 4666  z "
       transform="scale(0.015625)" /><path
       id="DejaVuSans-30-6"
       d="M 2034 4250  Q 1547 4250 1301 3770  Q 1056 3291 1056 2328  Q 1056 1369 1301 889  Q 1547 409 2034 409  Q 2525 409 2770 889  Q 3016 1369 3016 2328  Q 3016 3291 2770 3770  Q 2525 4250 2034 4250  z M 2034 4750  Q 2819 4750 3233 4129  Q 3647 3509 3647 2328  Q 3647 1150 3233 529  Q 2819 -91 2034 -91  Q 1250 -91 836 529  Q 422 1150 422 2328  Q 422 3509 836 4129  Q 1250 4750 2034 4750  z "
       transform="scale(0.015625)" /><path
       id="DejaVuSans-37"
       d="M 525 4666  L 3525 4666  L 3525 4397  L 1831 0  L 1172 0  L 2766 4134  L 525 4134  L 525 4666  z "
       transform="scale(0.015625)" /><path
       id="DejaVuSans-31-8"
       d="M 794 531  L 1825 531  L 1825 4091  L 703 3866  L 703 4441  L 1819 4666  L 2450 4666  L 2450 531  L 3481 531  L 3481 0  L 794 0  L 794 531  z "
       transform="scale(0.015625)" /><path
       id="DejaVuSans-74-9"
       d="M 1172 4494  L 1172 3500  L 2356 3500  L 2356 3053  L 1172 3053  L 1172 1153  Q 1172 725 1289 603  Q 1406 481 1766 481  L 2356 481  L 2356 0  L 1766 0  Q 1100 0 847 248  Q 594 497 594 1153  L 594 3053  L 172 3053  L 172 3500  L 594 3500  L 594 4494  L 1172 4494  z "
       transform="scale(0.015625)" /><path
       id="DejaVuSans-69-4"
       d="M 603 3500  L 1178 3500  L 1178 0  L 603 0  L 603 3500  z M 603 4863  L 1178 4863  L 1178 4134  L 603 4134  L 603 4863  z "
       transform="scale(0.015625)" /><path
       id="DejaVuSans-6d-8"
       d="M 3328 2828  Q 3544 3216 3844 3400  Q 4144 3584 4550 3584  Q 5097 3584 5394 3201  Q 5691 2819 5691 2113  L 5691 0  L 5113 0  L 5113 2094  Q 5113 2597 4934 2840  Q 4756 3084 4391 3084  Q 3944 3084 3684 2787  Q 3425 2491 3425 1978  L 3425 0  L 2847 0  L 2847 2094  Q 2847 2600 2669 2842  Q 2491 3084 2119 3084  Q 1678 3084 1418 2786  Q 1159 2488 1159 1978  L 1159 0  L 581 0  L 581 3500  L 1159 3500  L 1159 2956  Q 1356 3278 1631 3431  Q 1906 3584 2284 3584  Q 2666 3584 2933 3390  Q 3200 3197 3328 2828  z "
       transform="scale(0.015625)" /><path
       id="DejaVuSans-65-9"
       d="M 3597 1894  L 3597 1613  L 953 1613  Q 991 1019 1311 708  Q 1631 397 2203 397  Q 2534 397 2845 478  Q 3156 559 3463 722  L 3463 178  Q 3153 47 2828 -22  Q 2503 -91 2169 -91  Q 1331 -91 842 396  Q 353 884 353 1716  Q 353 2575 817 3079  Q 1281 3584 2069 3584  Q 2775 3584 3186 3129  Q 3597 2675 3597 1894  z M 3022 2063  Q 3016 2534 2758 2815  Q 2500 3097 2075 3097  Q 1594 3097 1305 2825  Q 1016 2553 972 2059  L 3022 2063  z "
       transform="scale(0.015625)" /><path
       id="DejaVuSans-2f-7"
       d="M 1625 4666  L 2156 4666  L 531 -594  L 0 -594  L 1625 4666  z "
       transform="scale(0.015625)" /><path
       id="DejaVuSans-6e-1"
       d="M 3513 2113  L 3513 0  L 2938 0  L 2938 2094  Q 2938 2591 2744 2837  Q 2550 3084 2163 3084  Q 1697 3084 1428 2787  Q 1159 2491 1159 1978  L 1159 0  L 581 0  L 581 3500  L 1159 3500  L 1159 2956  Q 1366 3272 1645 3428  Q 1925 3584 2291 3584  Q 2894 3584 3203 3211  Q 3513 2838 3513 2113  z "
       transform="scale(0.015625)" /><path
       id="DejaVuSans-73-7"
       d="M 2834 3397  L 2834 2853  Q 2591 2978 2328 3040  Q 2066 3103 1784 3103  Q 1356 3103 1142 2972  Q 928 2841 928 2578  Q 928 2378 1081 2264  Q 1234 2150 1697 2047  L 1894 2003  Q 2506 1872 2764 1633  Q 3022 1394 3022 966  Q 3022 478 2636 193  Q 2250 -91 1575 -91  Q 1294 -91 989 -36  Q 684 19 347 128  L 347 722  Q 666 556 975 473  Q 1284 391 1588 391  Q 1994 391 2212 530  Q 2431 669 2431 922  Q 2431 1156 2273 1281  Q 2116 1406 1581 1522  L 1381 1569  Q 847 1681 609 1914  Q 372 2147 372 2553  Q 372 3047 722 3315  Q 1072 3584 1716 3584  Q 2034 3584 2315 3537  Q 2597 3491 2834 3397  z "
       transform="scale(0.015625)" /><path
       id="m899610c169"
       d="M 0 0  L -3.5 0  "
       style="stroke: #000000; stroke-width: 0.8" /><path
       id="DejaVuSans-2212-3"
       d="M 678 2272  L 4684 2272  L 4684 1741  L 678 1741  L 678 2272  z "
       transform="scale(0.015625)" /><path
       id="DejaVuSans-38"
       d="M 2034 2216  Q 1584 2216 1326 1975  Q 1069 1734 1069 1313  Q 1069 891 1326 650  Q 1584 409 2034 409  Q 2484 409 2743 651  Q 3003 894 3003 1313  Q 3003 1734 2745 1975  Q 2488 2216 2034 2216  z M 1403 2484  Q 997 2584 770 2862  Q 544 3141 544 3541  Q 544 4100 942 4425  Q 1341 4750 2034 4750  Q 2731 4750 3128 4425  Q 3525 4100 3525 3541  Q 3525 3141 3298 2862  Q 3072 2584 2669 2484  Q 3125 2378 3379 2068  Q 3634 1759 3634 1313  Q 3634 634 3220 271  Q 2806 -91 2034 -91  Q 1263 -91 848 271  Q 434 634 434 1313  Q 434 1759 690 2068  Q 947 2378 1403 2484  z M 1172 3481  Q 1172 3119 1398 2916  Q 1625 2713 2034 2713  Q 2441 2713 2670 2916  Q 2900 3119 2900 3481  Q 2900 3844 2670 4047  Q 2441 4250 2034 4250  Q 1625 4250 1398 4047  Q 1172 3844 1172 3481  z "
       transform="scale(0.015625)" /><path
       id="DejaVuSans-36"
       d="M 2113 2584  Q 1688 2584 1439 2293  Q 1191 2003 1191 1497  Q 1191 994 1439 701  Q 1688 409 2113 409  Q 2538 409 2786 701  Q 3034 994 3034 1497  Q 3034 2003 2786 2293  Q 2538 2584 2113 2584  z M 3366 4563  L 3366 3988  Q 3128 4100 2886 4159  Q 2644 4219 2406 4219  Q 1781 4219 1451 3797  Q 1122 3375 1075 2522  Q 1259 2794 1537 2939  Q 1816 3084 2150 3084  Q 2853 3084 3261 2657  Q 3669 2231 3669 1497  Q 3669 778 3244 343  Q 2819 -91 2113 -91  Q 1303 -91 875 529  Q 447 1150 447 2328  Q 447 3434 972 4092  Q 1497 4750 2381 4750  Q 2619 4750 2861 4703  Q 3103 4656 3366 4563  z "
       transform="scale(0.015625)" /><path
       id="DejaVuSans-70-6"
       d="M 1159 525  L 1159 -1331  L 581 -1331  L 581 3500  L 1159 3500  L 1159 2969  Q 1341 3281 1617 3432  Q 1894 3584 2278 3584  Q 2916 3584 3314 3078  Q 3713 2572 3713 1747  Q 3713 922 3314 415  Q 2916 -91 2278 -91  Q 1894 -91 1617 61  Q 1341 213 1159 525  z M 3116 1747  Q 3116 2381 2855 2742  Q 2594 3103 2138 3103  Q 1681 3103 1420 2742  Q 1159 2381 1159 1747  Q 1159 1113 1420 752  Q 1681 391 2138 391  Q 2594 391 2855 752  Q 3116 1113 3116 1747  z "
       transform="scale(0.015625)" /><path
       id="DejaVuSans-68-0"
       d="M 3513 2113  L 3513 0  L 2938 0  L 2938 2094  Q 2938 2591 2744 2837  Q 2550 3084 2163 3084  Q 1697 3084 1428 2787  Q 1159 2491 1159 1978  L 1159 0  L 581 0  L 581 4863  L 1159 4863  L 1159 2956  Q 1366 3272 1645 3428  Q 1925 3584 2291 3584  Q 2894 3584 3203 3211  Q 3513 2838 3513 2113  z "
       transform="scale(0.015625)" /><path
       id="DejaVuSans-61-7"
       d="M 2194 1759  Q 1497 1759 1228 1600  Q 959 1441 959 1056  Q 959 750 1161 570  Q 1363 391 1709 391  Q 2188 391 2477 730  Q 2766 1069 2766 1631  L 2766 1759  L 2194 1759  z M 3341 1997  L 3341 0  L 2766 0  L 2766 531  Q 2569 213 2275 61  Q 1981 -91 1556 -91  Q 1019 -91 701 211  Q 384 513 384 1019  Q 384 1609 779 1909  Q 1175 2209 1959 2209  L 2766 2209  L 2766 2266  Q 2766 2663 2505 2880  Q 2244 3097 1772 3097  Q 1472 3097 1187 3025  Q 903 2953 641 2809  L 641 3341  Q 956 3463 1253 3523  Q 1550 3584 1831 3584  Q 2591 3584 2966 3190  Q 3341 2797 3341 1997  z "
       transform="scale(0.015625)" /><path
       id="DejaVuSans-3c0-8"
       d="M 231 3500  L 3584 3500  L 3584 2925  L 3144 2925  L 3144 775  Q 3144 550 3220 451  Q 3297 353 3469 353  Q 3516 353 3584 361  Q 3653 369 3675 372  L 3675 -44  Q 3566 -84 3450 -103  Q 3334 -122 3219 -122  Q 2844 -122 2700 83  Q 2556 288 2556 838  L 2556 2925  L 1266 2925  L 1266 0  L 678 0  L 678 2925  L 231 2925  L 231 3500  z "
       transform="scale(0.015625)" /><clipPath
       id="p5712ebfe55"><rect
         x="43.2"
         y="25.92"
         width="267.84"
         height="166.32"
         id="rect1014" /></clipPath></defs><g
     inkscape:label="Layer 1"
     inkscape:groupmode="layer"
     id="layer1"><g
       id="figure_1"
       transform="matrix(0.17672921,0,0,0.17672921,15.166645,4.8546055)"><g
         id="patch_1"><path
           d="M 0,216 H 345.6 V 0 H 0 Z"
           style="fill:#ffffff"
           id="path15" /></g><g
         id="axes_1"><g
           id="patch_2"><path
             d="M 43.2,192.24 H 311.04 V 25.92 H 43.2 Z"
             style="fill:#ffffff"
             id="path18" /></g><g
           id="matplotlib.axis_1"><g
             id="xtick_1"><g
               id="line2d_1"><defs
                 id="defs22"><path
                   id="path364"
                   d="M 0,0 V 3.5"
                   style="stroke:#000000;stroke-width:0.8" /></defs><g
                 id="g26"><use
                   xlink:href="#mab43da4b12"
                   x="55.374546"
                   y="192.24001"
                   style="stroke:#000000;stroke-width:0.8"
                   id="use24" /></g></g><g
               id="text_1"><!-- 0 --><g
                 transform="matrix(0.18,0,0,-0.18,49.648295,212.91719)"
                 id="g34"><defs
                   id="defs30"><path
                     id="path370"
                     d="m 2034,4250 q -487,0 -733,-480 -245,-479 -245,-1442 0,-959 245,-1439 246,-480 733,-480 491,0 736,480 246,480 246,1439 0,963 -246,1442 -245,480 -736,480 z m 0,500 q 785,0 1199,-621 414,-620 414,-1801 0,-1178 -414,-1799 -414,-620 -1199,-620 -784,0 -1198,620 -414,621 -414,1799 0,1181 414,1801 414,621 1198,621 z"
                     transform="scale(0.015625)" /></defs><use
                   xlink:href="#DejaVuSans-30"
                   id="use32" /></g></g></g><g
             id="xtick_2"><g
               id="line2d_2"><g
                 id="g40"><use
                   xlink:href="#mab43da4b12"
                   x="181.27901"
                   y="192.24001"
                   style="stroke:#000000;stroke-width:0.8"
                   id="use38" /></g></g><g
               id="text_2"><!-- 5 --><g
                 transform="matrix(0.18,0,0,-0.18,175.55276,212.91719)"
                 id="g48"><defs
                   id="defs44"><path
                     id="path380"
                     d="M 691,4666 H 3169 V 4134 H 1269 V 2991 q 137,47 274,70 138,23 276,23 781,0 1237,-428 457,-428 457,-1159 Q 3513,744 3044,326 2575,-91 1722,-91 1428,-91 1123,-41 819,9 494,109 v 635 q 281,-153 581,-228 300,-75 634,-75 541,0 856,284 316,284 316,772 0,487 -316,771 -315,285 -856,285 -253,0 -505,-56 -251,-56 -513,-175 z"
                     transform="scale(0.015625)" /></defs><use
                   xlink:href="#DejaVuSans-35"
                   id="use46" /></g></g></g><g
             id="xtick_3"><g
               id="line2d_3"><g
                 id="g54"><use
                   xlink:href="#mab43da4b12"
                   x="307.18347"
                   y="192.24001"
                   style="stroke:#000000;stroke-width:0.8"
                   id="use52" /></g></g><g
               id="text_3"><!-- 10 --><g
                 transform="matrix(0.18,0,0,-0.18,295.73097,212.91719)"
                 id="g64"><defs
                   id="defs58"><path
                     id="path390"
                     d="M 794,531 H 1825 V 4091 L 703,3866 v 575 l 1116,225 h 631 V 531 H 3481 V 0 H 794 Z"
                     transform="scale(0.015625)" /></defs><use
                   xlink:href="#DejaVuSans-31"
                   id="use60" /><use
                   xlink:href="#DejaVuSans-30"
                   x="63.623047"
                   id="use62" /></g></g></g><g
             id="text_4"><!-- time/ns --><g
               transform="matrix(0.18,0,0,-0.18,143.36297,234.33781)"
               id="g91"><defs
                 id="defs75"><path
                   id="path398"
                   d="M 1172,4494 V 3500 H 2356 V 3053 H 1172 V 1153 q 0,-428 117,-550 117,-122 477,-122 h 590 V 0 H 1766 Q 1100,0 847,248 594,497 594,1153 V 3053 H 172 v 447 h 422 v 994 z"
                   transform="scale(0.015625)" /><path
                   id="path400"
                   d="m 603,3500 h 575 V 0 H 603 Z m 0,1363 h 575 V 4134 H 603 Z"
                   transform="scale(0.015625)" /><path
                   id="path402"
                   d="m 3328,2828 q 216,388 516,572 300,184 706,184 547,0 844,-383 297,-382 297,-1088 V 0 h -578 v 2094 q 0,503 -179,746 -178,244 -543,244 -447,0 -707,-297 -259,-296 -259,-809 V 0 h -578 v 2094 q 0,506 -178,748 -178,242 -550,242 -441,0 -701,-298 -259,-298 -259,-808 V 0 H 581 v 3500 h 578 v -544 q 197,322 472,475 275,153 653,153 382,0 649,-194 267,-193 395,-562 z"
                   transform="scale(0.015625)" /><path
                   id="path404"
                   d="M 3597,1894 V 1613 H 953 q 38,-594 358,-905 320,-311 892,-311 331,0 642,81 311,81 618,244 V 178 Q 3153,47 2828,-22 2503,-91 2169,-91 1331,-91 842,396 353,884 353,1716 q 0,859 464,1363 464,505 1252,505 706,0 1117,-455 411,-454 411,-1235 z m -575,169 q -6,471 -264,752 -258,282 -683,282 -481,0 -770,-272 -289,-272 -333,-766 z"
                   transform="scale(0.015625)" /><path
                   id="path406"
                   d="m 1625,4666 h 531 L 531,-594 H 0 Z"
                   transform="scale(0.015625)" /><path
                   id="path408"
                   d="M 3513,2113 V 0 h -575 v 2094 q 0,497 -194,743 -194,247 -581,247 -466,0 -735,-297 -269,-296 -269,-809 V 0 H 581 v 3500 h 578 v -544 q 207,316 486,472 280,156 646,156 603,0 912,-373 310,-373 310,-1098 z"
                   transform="scale(0.015625)" /><path
                   id="path410"
                   d="m 2834,3397 v -544 q -243,125 -506,187 -262,63 -544,63 -428,0 -642,-131 -214,-131 -214,-394 0,-200 153,-314 153,-114 616,-217 l 197,-44 q 612,-131 870,-370 258,-239 258,-667 0,-488 -386,-773 Q 2250,-91 1575,-91 1294,-91 989,-36 684,19 347,128 v 594 q 319,-166 628,-249 309,-82 613,-82 406,0 624,139 219,139 219,392 0,234 -158,359 -157,125 -692,241 l -200,47 q -534,112 -772,345 -237,233 -237,639 0,494 350,762 350,269 994,269 318,0 599,-47 282,-46 519,-140 z"
                   transform="scale(0.015625)" /></defs><use
                 xlink:href="#DejaVuSans-74"
                 id="use77" /><use
                 xlink:href="#DejaVuSans-69"
                 x="39.208984"
                 id="use79" /><use
                 xlink:href="#DejaVuSans-6d"
                 x="66.992188"
                 id="use81" /><use
                 xlink:href="#DejaVuSans-65"
                 x="164.4043"
                 id="use83" /><use
                 xlink:href="#DejaVuSans-2f"
                 x="225.92773"
                 id="use85" /><use
                 xlink:href="#DejaVuSans-6e"
                 x="259.61914"
                 id="use87" /><use
                 xlink:href="#DejaVuSans-73"
                 x="322.99805"
                 id="use89" /></g></g></g><g
           id="matplotlib.axis_2"><g
             id="ytick_1"><g
               id="line2d_4"><defs
                 id="defs96"><path
                   id="path423"
                   d="M 0,0 H -3.5"
                   style="stroke:#000000;stroke-width:0.8" /></defs><g
                 id="g100"><use
                   xlink:href="#m9de421ef55"
                   x="43.200001"
                   y="162.17343"
                   style="stroke:#000000;stroke-width:0.8"
                   id="use98" /></g></g><g
               id="text_5"><!-- −0.15 --><g
                 transform="matrix(0.18,0,0,-0.18,-18.961562,169.01203)"
                 id="g117"><defs
                   id="defs105"><path
                     id="path429"
                     d="M 678,2272 H 4684 V 1741 H 678 Z"
                     transform="scale(0.015625)" /><path
                     id="path431"
                     d="m 684,794 h 660 V 0 H 684 Z"
                     transform="scale(0.015625)" /></defs><use
                   xlink:href="#DejaVuSans-2212"
                   id="use107" /><use
                   xlink:href="#DejaVuSans-30"
                   x="83.789062"
                   id="use109" /><use
                   xlink:href="#DejaVuSans-2e"
                   x="147.41211"
                   id="use111" /><use
                   xlink:href="#DejaVuSans-31"
                   x="179.19922"
                   id="use113" /><use
                   xlink:href="#DejaVuSans-35"
                   x="242.82227"
                   id="use115" /></g></g></g><g
             id="ytick_2"><g
               id="line2d_5"><g
                 id="g123"><use
                   xlink:href="#m9de421ef55"
                   x="43.200001"
                   y="119.27562"
                   style="stroke:#000000;stroke-width:0.8"
                   id="use121" /></g></g><g
               id="text_6"><!-- −0.10 --><g
                 transform="matrix(0.18,0,0,-0.18,-18.961562,126.11422)"
                 id="g136"><use
                   xlink:href="#DejaVuSans-2212"
                   id="use126" /><use
                   xlink:href="#DejaVuSans-30"
                   x="83.789062"
                   id="use128" /><use
                   xlink:href="#DejaVuSans-2e"
                   x="147.41211"
                   id="use130" /><use
                   xlink:href="#DejaVuSans-31"
                   x="179.19922"
                   id="use132" /><use
                   xlink:href="#DejaVuSans-30"
                   x="242.82227"
                   id="use134" /></g></g></g><g
             id="ytick_3"><g
               id="line2d_6"><g
                 id="g142"><use
                   xlink:href="#m9de421ef55"
                   x="43.200001"
                   y="76.377815"
                   style="stroke:#000000;stroke-width:0.8"
                   id="use140" /></g></g><g
               id="text_7"><!-- −0.05 --><g
                 transform="matrix(0.18,0,0,-0.18,-18.961562,83.216405)"
                 id="g155"><use
                   xlink:href="#DejaVuSans-2212"
                   id="use145" /><use
                   xlink:href="#DejaVuSans-30"
                   x="83.789062"
                   id="use147" /><use
                   xlink:href="#DejaVuSans-2e"
                   x="147.41211"
                   id="use149" /><use
                   xlink:href="#DejaVuSans-30"
                   x="179.19922"
                   id="use151" /><use
                   xlink:href="#DejaVuSans-35"
                   x="242.82227"
                   id="use153" /></g></g></g><g
             id="ytick_4"><g
               id="line2d_7"><g
                 id="g161"><use
                   xlink:href="#m9de421ef55"
                   x="43.200001"
                   y="33.48"
                   style="stroke:#000000;stroke-width:0.8"
                   id="use159" /></g></g><g
               id="text_8"><!-- 0.00 --><g
                 transform="matrix(0.18,0,0,-0.18,-3.878125,40.318594)"
                 id="g172"><use
                   xlink:href="#DejaVuSans-30"
                   id="use164" /><use
                   xlink:href="#DejaVuSans-2e"
                   x="63.623047"
                   id="use166" /><use
                   xlink:href="#DejaVuSans-30"
                   x="95.410156"
                   id="use168" /><use
                   xlink:href="#DejaVuSans-30"
                   x="159.0332"
                   id="use170" /></g></g></g><g
             id="text_9"><!-- phase/π --><g
               transform="matrix(0,-0.18,-0.18,0,-26.705,144.68906)"
               id="g196"><defs
                 id="defs180"><path
                   id="path474"
                   d="M 1159,525 V -1331 H 581 v 4831 h 578 v -531 q 182,312 458,463 277,152 661,152 638,0 1036,-506 399,-506 399,-1331 0,-825 -399,-1332 -398,-506 -1036,-506 -384,0 -661,152 -276,152 -458,464 z m 1957,1222 q 0,634 -261,995 -261,361 -717,361 -457,0 -718,-361 -261,-361 -261,-995 0,-634 261,-995 261,-361 718,-361 456,0 717,361 261,361 261,995 z"
                   transform="scale(0.015625)" /><path
                   id="path476"
                   d="M 3513,2113 V 0 h -575 v 2094 q 0,497 -194,743 -194,247 -581,247 -466,0 -735,-297 -269,-296 -269,-809 V 0 H 581 v 4863 h 578 V 2956 q 207,316 486,472 280,156 646,156 603,0 912,-373 310,-373 310,-1098 z"
                   transform="scale(0.015625)" /><path
                   id="path478"
                   d="m 2194,1759 q -697,0 -966,-159 -269,-159 -269,-544 0,-306 202,-486 202,-179 548,-179 479,0 768,339 289,339 289,901 v 128 z m 1147,238 V 0 H 2766 V 531 Q 2569,213 2275,61 1981,-91 1556,-91 q -537,0 -855,302 -317,302 -317,808 0,590 395,890 396,300 1180,300 h 807 v 57 q 0,397 -261,614 -261,217 -733,217 -300,0 -585,-72 -284,-72 -546,-216 v 532 q 315,122 612,182 297,61 578,61 760,0 1135,-394 375,-393 375,-1193 z"
                   transform="scale(0.015625)" /><path
                   id="path480"
                   d="M 231,3500 H 3584 V 2925 H 3144 V 775 q 0,-225 76,-324 77,-98 249,-98 47,0 115,8 69,8 91,11 V -44 q -109,-40 -225,-59 -116,-19 -231,-19 -375,0 -519,205 -144,205 -144,755 V 2925 H 1266 V 0 H 678 V 2925 H 231 Z"
                   transform="scale(0.015625)" /></defs><use
                 xlink:href="#DejaVuSans-70"
                 id="use182" /><use
                 xlink:href="#DejaVuSans-68"
                 x="63.476562"
                 id="use184" /><use
                 xlink:href="#DejaVuSans-61"
                 x="126.85547"
                 id="use186" /><use
                 xlink:href="#DejaVuSans-73"
                 x="188.13477"
                 id="use188" /><use
                 xlink:href="#DejaVuSans-65"
                 x="240.23438"
                 id="use190" /><use
                 xlink:href="#DejaVuSans-2f"
                 x="301.75781"
                 id="use192" /><use
                 xlink:href="#DejaVuSans-3c0"
                 x="335.44922"
                 id="use194" /></g></g></g><g
           id="line2d_8"><path
             d="m 55.374545,33.48 32.767928,121.36217 2.52061,8.2627 1.512366,4.36807 1.512366,3.78124 1.512366,3.10084 1.008244,1.66018 1.008244,1.32869 1.008243,1.00546 1.008244,0.70355 1.008244,0.43677 1.00824,0.21901 1.51237,0.0604 41.338,-1.19654 154.76544,-4.4845 v 0"
             clip-path="url(#pd1b93ec5dd)"
             style="fill:none;stroke:#1f77b4;stroke-width:1.1;stroke-dasharray:4.07, 1.76;stroke-dashoffset:0"
             id="path200" /></g><g
           id="line2d_9"><path
             d="m 55.374545,33.48 32.767928,121.36575 2.52061,8.27173 1.512366,4.37799 1.512366,3.79537 1.512366,3.11946 1.008244,1.67507 1.008244,1.34543 1.008243,1.02387 1.008244,0.72341 1.008244,0.45779 1.00824,0.24093 1.51237,0.0943 41.338,-0.25883 154.76544,-0.97413 v 0"
             clip-path="url(#pd1b93ec5dd)"
             style="fill:none;stroke:#ff7f0e;stroke-width:1.1;stroke-dasharray:4.07, 1.76;stroke-dashoffset:0"
             id="path203" /></g><g
           id="line2d_10"><path
             d="m 55.374545,33.48 32.767928,121.36579 2.52061,8.27182 1.512366,4.37811 1.512366,3.79552 1.512366,3.11968 1.008244,1.67525 1.008244,1.34565 1.008243,1.0241 1.008244,0.72367 1.008244,0.45808 1.00824,0.24124 1.51237,0.0948 41.338,-0.24555 154.76544,-0.9244 v 0"
             clip-path="url(#pd1b93ec5dd)"
             style="fill:none;stroke:#2ca02c;stroke-width:1.1;stroke-dasharray:4.07, 1.76;stroke-dashoffset:0"
             id="path206" /></g><g
           id="line2d_11"><path
             d="m 55.374545,33.48 32.767928,121.36939 2.52061,8.28107 2.016488,5.7281 1.512366,3.59584 1.512366,2.90221 1.008244,1.52822 1.008244,1.20354 1.008243,0.89317 1.008244,0.61048 1.008242,0.36926 1.51237,0.22585 5.54534,0.13884 191.06222,4.35403 v 0"
             clip-path="url(#pd1b93ec5dd)"
             style="fill:none;stroke:#d62728;stroke-width:1.1;stroke-dasharray:4.07, 1.76;stroke-dashoffset:0"
             id="path209" /></g><g
           id="patch_3"><path
             d="M 43.2,192.24 V 25.92"
             style="fill:none;stroke:#000000;stroke-width:0.8;stroke-linecap:square;stroke-linejoin:miter"
             id="path212" /></g><g
           id="patch_4"><path
             d="M 311.04,192.24 V 25.92"
             style="fill:none;stroke:#000000;stroke-width:0.8;stroke-linecap:square;stroke-linejoin:miter"
             id="path215" /></g><g
           id="patch_5"><path
             d="M 43.2,192.24 H 311.04"
             style="fill:none;stroke:#000000;stroke-width:0.8;stroke-linecap:square;stroke-linejoin:miter"
             id="path218" /></g><g
           id="patch_6"><path
             d="M 43.2,25.92 H 311.04"
             style="fill:none;stroke:#000000;stroke-width:0.8;stroke-linecap:square;stroke-linejoin:miter"
             id="path221" /></g><g
           id="legend_1"><g
             id="patch_7"><path
               d="M 146.61562,148.32 H 298.44 q 3.6,0 3.6,-3.6 V 38.52 q 0,-3.6 -3.6,-3.6 H 146.61562 q -3.6,0 -3.6,3.6 v 106.2 q 0,3.6 3.6,3.6 z"
               style="opacity:0.8;fill:#ffffff;stroke:#cccccc;stroke-linejoin:miter"
               id="path224" /></g><g
             id="line2d_12"><path
               d="m 150.21562,49.575937 h 18 18"
               style="fill:none;stroke:#1f77b4;stroke-width:1.1;stroke-dasharray:4.07, 1.76;stroke-dashoffset:0"
               id="path227" /></g><g
             id="text_10"><!-- |↿⇂↿,⇂⇂⟩ --><g
               transform="matrix(0.18,0,0,-0.18,200.61562,55.875937)"
               id="g253"><defs
                 id="defs235"><path
                   id="path513"
                   d="M 1344,4891 V -1509 H 813 v 6400 z"
                   transform="scale(0.015625)" /><path
                   id="path515"
                   d="M 2947,4688 V 0 h -531 v 3813 l -732,-732 -375,375 1232,1232 z"
                   transform="scale(0.015625)" /><path
                   id="path517"
                   d="m 2416,0 v 4688 h 531 V 875 l 725,731 375,-375 L 2822,0 Z"
                   transform="scale(0.015625)" /><path
                   id="path519"
                   d="m 750,794 h 659 V 256 L 897,-744 H 494 L 750,256 Z"
                   transform="scale(0.015625)" /><path
                   id="path521"
                   d="M 1925,2006 1044,-844 H 513 l 881,2850 -881,2850 h 531 z"
                   transform="scale(0.015625)" /></defs><use
                 xlink:href="#DejaVuSans-7c"
                 id="use237" /><use
                 xlink:href="#DejaVuSans-21bf"
                 x="33.691406"
                 id="use239" /><use
                 xlink:href="#DejaVuSans-21c2"
                 x="117.48047"
                 id="use241" /><use
                 xlink:href="#DejaVuSans-21bf"
                 x="201.26953"
                 id="use243" /><use
                 xlink:href="#DejaVuSans-2c"
                 x="285.05859"
                 id="use245" /><use
                 xlink:href="#DejaVuSans-21c2"
                 x="316.8457"
                 id="use247" /><use
                 xlink:href="#DejaVuSans-21c2"
                 x="400.63477"
                 id="use249" /><use
                 xlink:href="#DejaVuSans-27e9"
                 x="484.42383"
                 id="use251" /></g></g><g
             id="line2d_13"><path
               d="m 150.21562,76.575937 h 18 18"
               style="fill:none;stroke:#ff7f0e;stroke-width:1.1;stroke-dasharray:4.07, 1.76;stroke-dashoffset:0"
               id="path256" /></g><g
             id="text_11"><!-- |↿⇂↿,⇂↿⟩ --><g
               transform="matrix(0.18,0,0,-0.18,200.61562,82.875937)"
               id="g275"><use
                 xlink:href="#DejaVuSans-7c"
                 id="use259" /><use
                 xlink:href="#DejaVuSans-21bf"
                 x="33.691406"
                 id="use261" /><use
                 xlink:href="#DejaVuSans-21c2"
                 x="117.48047"
                 id="use263" /><use
                 xlink:href="#DejaVuSans-21bf"
                 x="201.26953"
                 id="use265" /><use
                 xlink:href="#DejaVuSans-2c"
                 x="285.05859"
                 id="use267" /><use
                 xlink:href="#DejaVuSans-21c2"
                 x="316.8457"
                 id="use269" /><use
                 xlink:href="#DejaVuSans-21bf"
                 x="400.63477"
                 id="use271" /><use
                 xlink:href="#DejaVuSans-27e9"
                 x="484.42383"
                 id="use273" /></g></g><g
             id="line2d_14"><path
               d="m 150.21562,103.57594 h 18 18"
               style="fill:none;stroke:#2ca02c;stroke-width:1.1;stroke-dasharray:4.07, 1.76;stroke-dashoffset:0"
               id="path278" /></g><g
             id="text_12"><!-- |↿⇂↿,↿⇂⟩ --><g
               transform="matrix(0.18,0,0,-0.18,200.61562,109.87594)"
               id="g297"><use
                 xlink:href="#DejaVuSans-7c"
                 id="use281" /><use
                 xlink:href="#DejaVuSans-21bf"
                 x="33.691406"
                 id="use283" /><use
                 xlink:href="#DejaVuSans-21c2"
                 x="117.48047"
                 id="use285" /><use
                 xlink:href="#DejaVuSans-21bf"
                 x="201.26953"
                 id="use287" /><use
                 xlink:href="#DejaVuSans-2c"
                 x="285.05859"
                 id="use289" /><use
                 xlink:href="#DejaVuSans-21bf"
                 x="316.8457"
                 id="use291" /><use
                 xlink:href="#DejaVuSans-21c2"
                 x="400.63477"
                 id="use293" /><use
                 xlink:href="#DejaVuSans-27e9"
                 x="484.42383"
                 id="use295" /></g></g><g
             id="line2d_15"><path
               d="m 150.21562,130.57594 h 18 18"
               style="fill:none;stroke:#d62728;stroke-width:1.1;stroke-dasharray:4.07, 1.76;stroke-dashoffset:0"
               id="path300" /></g><g
             id="text_13"><!-- |↿⇂↿,↿↿⟩ --><g
               transform="matrix(0.18,0,0,-0.18,200.61562,136.87594)"
               id="g319"><use
                 xlink:href="#DejaVuSans-7c"
                 id="use303" /><use
                 xlink:href="#DejaVuSans-21bf"
                 x="33.691406"
                 id="use305" /><use
                 xlink:href="#DejaVuSans-21c2"
                 x="117.48047"
                 id="use307" /><use
                 xlink:href="#DejaVuSans-21bf"
                 x="201.26953"
                 id="use309" /><use
                 xlink:href="#DejaVuSans-2c"
                 x="285.05859"
                 id="use311" /><use
                 xlink:href="#DejaVuSans-21bf"
                 x="316.8457"
                 id="use313" /><use
                 xlink:href="#DejaVuSans-21bf"
                 x="400.63477"
                 id="use315" /><use
                 xlink:href="#DejaVuSans-27e9"
                 x="484.42383"
                 id="use317" /></g></g></g></g></g><g
       id="figure_1-6"
       transform="matrix(0.1767755,0,0,0.1767755,15.527781,42.666823)"><g
         id="patch_1-1"><path
           d="M 0,216 H 345.6 V 0 H 0 Z"
           style="fill:#ffffff"
           id="path737" /></g><g
         id="axes_1-2"><g
           id="patch_2-5"><path
             d="M 43.2,192.24 H 311.04 V 25.92 H 43.2 Z"
             style="fill:#ffffff"
             id="path740" /></g><g
           id="matplotlib.axis_1-9"><g
             id="xtick_1-3"><g
               id="line2d_1-9"><defs
                 id="defs744"><path
                   id="path1052"
                   d="M 0,0 V 3.5"
                   style="stroke:#000000;stroke-width:0.8" /></defs><g
                 id="g748"><use
                   xlink:href="#me92728dfd5"
                   x="74.710587"
                   y="192.24001"
                   style="stroke:#000000;stroke-width:0.8"
                   id="use746" /></g></g><g
               id="text_1-9"><!-- 2.5 --><g
                 transform="matrix(0.18,0,0,-0.18,60.397776,212.91719)"
                 id="g762"><defs
                   id="defs754"><path
                     id="path1058"
                     d="M 1228,531 H 3431 V 0 H 469 v 531 q 359,372 979,998 621,627 780,809 303,340 423,576 121,236 121,464 0,372 -261,606 -261,235 -680,235 -297,0 -627,-103 -329,-103 -704,-313 v 638 q 381,153 712,231 332,78 607,78 725,0 1156,-363 431,-362 431,-968 0,-288 -108,-546 -107,-257 -392,-607 -78,-91 -497,-524 Q 1991,1309 1228,531 Z"
                     transform="scale(0.015625)" /><path
                     id="path1060"
                     d="m 684,794 h 660 V 0 H 684 Z"
                     transform="scale(0.015625)" /><path
                     id="path1062"
                     d="M 691,4666 H 3169 V 4134 H 1269 V 2991 q 137,47 274,70 138,23 276,23 781,0 1237,-428 457,-428 457,-1159 Q 3513,744 3044,326 2575,-91 1722,-91 1428,-91 1123,-41 819,9 494,109 v 635 q 281,-153 581,-228 300,-75 634,-75 541,0 856,284 316,284 316,772 0,487 -316,771 -315,285 -856,285 -253,0 -505,-56 -251,-56 -513,-175 z"
                     transform="scale(0.015625)" /></defs><use
                   xlink:href="#DejaVuSans-32"
                   id="use756" /><use
                   xlink:href="#DejaVuSans-2e-5"
                   x="63.623047"
                   id="use758" /><use
                   xlink:href="#DejaVuSans-35-7"
                   x="95.410156"
                   id="use760" /></g></g></g><g
             id="xtick_2-7"><g
               id="line2d_2-0"><g
                 id="g768"><use
                   xlink:href="#me92728dfd5"
                   x="153.48706"
                   y="192.24001"
                   style="stroke:#000000;stroke-width:0.8"
                   id="use766" /></g></g><g
               id="text_2-2"><!-- 5.0 --><g
                 transform="matrix(0.18,0,0,-0.18,139.17425,212.91719)"
                 id="g780"><defs
                   id="defs772"><path
                     id="path1074"
                     d="m 2034,4250 q -487,0 -733,-480 -245,-479 -245,-1442 0,-959 245,-1439 246,-480 733,-480 491,0 736,480 246,480 246,1439 0,963 -246,1442 -245,480 -736,480 z m 0,500 q 785,0 1199,-621 414,-620 414,-1801 0,-1178 -414,-1799 -414,-620 -1199,-620 -784,0 -1198,620 -414,621 -414,1799 0,1181 414,1801 414,621 1198,621 z"
                     transform="scale(0.015625)" /></defs><use
                   xlink:href="#DejaVuSans-35-7"
                   id="use774" /><use
                   xlink:href="#DejaVuSans-2e-5"
                   x="63.623047"
                   id="use776" /><use
                   xlink:href="#DejaVuSans-30-6"
                   x="95.410156"
                   id="use778" /></g></g></g><g
             id="xtick_3-2"><g
               id="line2d_3-2"><g
                 id="g786"><use
                   xlink:href="#me92728dfd5"
                   x="232.26353"
                   y="192.24001"
                   style="stroke:#000000;stroke-width:0.8"
                   id="use784" /></g></g><g
               id="text_3-3"><!-- 7.5 --><g
                 transform="matrix(0.18,0,0,-0.18,217.95072,212.91719)"
                 id="g798"><defs
                   id="defs790"><path
                     id="path1086"
                     d="M 525,4666 H 3525 V 4397 L 1831,0 H 1172 L 2766,4134 H 525 Z"
                     transform="scale(0.015625)" /></defs><use
                   xlink:href="#DejaVuSans-37"
                   id="use792" /><use
                   xlink:href="#DejaVuSans-2e-5"
                   x="63.623047"
                   id="use794" /><use
                   xlink:href="#DejaVuSans-35-7"
                   x="95.410156"
                   id="use796" /></g></g></g><g
             id="xtick_4"><g
               id="line2d_4-2"><g
                 id="g804"><use
                   xlink:href="#me92728dfd5"
                   x="311.04001"
                   y="192.24001"
                   style="stroke:#000000;stroke-width:0.8"
                   id="use802" /></g></g><g
               id="text_4-9"><!-- 10.0 --><g
                 transform="matrix(0.18,0,0,-0.18,291.00094,212.91719)"
                 id="g818"><defs
                   id="defs808"><path
                     id="path1098"
                     d="M 794,531 H 1825 V 4091 L 703,3866 v 575 l 1116,225 h 631 V 531 H 3481 V 0 H 794 Z"
                     transform="scale(0.015625)" /></defs><use
                   xlink:href="#DejaVuSans-31-8"
                   id="use810" /><use
                   xlink:href="#DejaVuSans-30-6"
                   x="63.623047"
                   id="use812" /><use
                   xlink:href="#DejaVuSans-2e-5"
                   x="127.24609"
                   id="use814" /><use
                   xlink:href="#DejaVuSans-30-6"
                   x="159.0332"
                   id="use816" /></g></g></g><g
             id="text_5-9"><!-- time/ns --><g
               transform="matrix(0.18,0,0,-0.18,143.36297,234.33781)"
               id="g845"><defs
                 id="defs829"><path
                   id="path1108"
                   d="M 1172,4494 V 3500 H 2356 V 3053 H 1172 V 1153 q 0,-428 117,-550 117,-122 477,-122 h 590 V 0 H 1766 Q 1100,0 847,248 594,497 594,1153 V 3053 H 172 v 447 h 422 v 994 z"
                   transform="scale(0.015625)" /><path
                   id="path1110"
                   d="m 603,3500 h 575 V 0 H 603 Z m 0,1363 h 575 V 4134 H 603 Z"
                   transform="scale(0.015625)" /><path
                   id="path1112"
                   d="m 3328,2828 q 216,388 516,572 300,184 706,184 547,0 844,-383 297,-382 297,-1088 V 0 h -578 v 2094 q 0,503 -179,746 -178,244 -543,244 -447,0 -707,-297 -259,-296 -259,-809 V 0 h -578 v 2094 q 0,506 -178,748 -178,242 -550,242 -441,0 -701,-298 -259,-298 -259,-808 V 0 H 581 v 3500 h 578 v -544 q 197,322 472,475 275,153 653,153 382,0 649,-194 267,-193 395,-562 z"
                   transform="scale(0.015625)" /><path
                   id="path1114"
                   d="M 3597,1894 V 1613 H 953 q 38,-594 358,-905 320,-311 892,-311 331,0 642,81 311,81 618,244 V 178 Q 3153,47 2828,-22 2503,-91 2169,-91 1331,-91 842,396 353,884 353,1716 q 0,859 464,1363 464,505 1252,505 706,0 1117,-455 411,-454 411,-1235 z m -575,169 q -6,471 -264,752 -258,282 -683,282 -481,0 -770,-272 -289,-272 -333,-766 z"
                   transform="scale(0.015625)" /><path
                   id="path1116"
                   d="m 1625,4666 h 531 L 531,-594 H 0 Z"
                   transform="scale(0.015625)" /><path
                   id="path1118"
                   d="M 3513,2113 V 0 h -575 v 2094 q 0,497 -194,743 -194,247 -581,247 -466,0 -735,-297 -269,-296 -269,-809 V 0 H 581 v 3500 h 578 v -544 q 207,316 486,472 280,156 646,156 603,0 912,-373 310,-373 310,-1098 z"
                   transform="scale(0.015625)" /><path
                   id="path1120"
                   d="m 2834,3397 v -544 q -243,125 -506,187 -262,63 -544,63 -428,0 -642,-131 -214,-131 -214,-394 0,-200 153,-314 153,-114 616,-217 l 197,-44 q 612,-131 870,-370 258,-239 258,-667 0,-488 -386,-773 Q 2250,-91 1575,-91 1294,-91 989,-36 684,19 347,128 v 594 q 319,-166 628,-249 309,-82 613,-82 406,0 624,139 219,139 219,392 0,234 -158,359 -157,125 -692,241 l -200,47 q -534,112 -772,345 -237,233 -237,639 0,494 350,762 350,269 994,269 318,0 599,-47 282,-46 519,-140 z"
                   transform="scale(0.015625)" /></defs><use
                 xlink:href="#DejaVuSans-74-9"
                 id="use831" /><use
                 xlink:href="#DejaVuSans-69-4"
                 x="39.208984"
                 id="use833" /><use
                 xlink:href="#DejaVuSans-6d-8"
                 x="66.992188"
                 id="use835" /><use
                 xlink:href="#DejaVuSans-65-9"
                 x="164.4043"
                 id="use837" /><use
                 xlink:href="#DejaVuSans-2f-7"
                 x="225.92773"
                 id="use839" /><use
                 xlink:href="#DejaVuSans-6e-1"
                 x="259.61914"
                 id="use841" /><use
                 xlink:href="#DejaVuSans-73-7"
                 x="322.99805"
                 id="use843" /></g></g></g><g
           id="matplotlib.axis_2-5"><g
             id="ytick_1-0"><g
               id="line2d_5-0"><defs
                 id="defs850"><path
                   id="path1133"
                   d="M 0,0 H -3.5"
                   style="stroke:#000000;stroke-width:0.8" /></defs><g
                 id="g854"><use
                   xlink:href="#m899610c169"
                   x="43.200001"
                   y="192.24001"
                   style="stroke:#000000;stroke-width:0.8"
                   id="use852" /></g></g><g
               id="text_6-0"><!-- −0.180 --><g
                 transform="matrix(0.18,0,0,-0.18,-30.414063,199.07859)"
                 id="g873"><defs
                   id="defs859"><path
                     id="path1139"
                     d="M 678,2272 H 4684 V 1741 H 678 Z"
                     transform="scale(0.015625)" /><path
                     id="path1141"
                     d="m 2034,2216 q -450,0 -708,-241 -257,-241 -257,-662 0,-422 257,-663 258,-241 708,-241 450,0 709,242 260,243 260,662 0,421 -258,662 -257,241 -711,241 z m -631,268 q -406,100 -633,378 -226,279 -226,679 0,559 398,884 399,325 1092,325 697,0 1094,-325 397,-325 397,-884 0,-400 -227,-679 -226,-278 -629,-378 456,-106 710,-416 255,-309 255,-755 Q 3634,634 3220,271 2806,-91 2034,-91 1263,-91 848,271 434,634 434,1313 q 0,446 256,755 257,310 713,416 z m -231,997 q 0,-362 226,-565 227,-203 636,-203 407,0 636,203 230,203 230,565 0,363 -230,566 -229,203 -636,203 -409,0 -636,-203 -226,-203 -226,-566 z"
                     transform="scale(0.015625)" /></defs><use
                   xlink:href="#DejaVuSans-2212-3"
                   id="use861" /><use
                   xlink:href="#DejaVuSans-30-6"
                   x="83.789062"
                   id="use863" /><use
                   xlink:href="#DejaVuSans-2e-5"
                   x="147.41211"
                   id="use865" /><use
                   xlink:href="#DejaVuSans-31-8"
                   x="179.19922"
                   id="use867" /><use
                   xlink:href="#DejaVuSans-38"
                   x="242.82227"
                   id="use869" /><use
                   xlink:href="#DejaVuSans-30-6"
                   x="306.44531"
                   id="use871" /></g></g></g><g
             id="ytick_2-3"><g
               id="line2d_6-7"><g
                 id="g879"><use
                   xlink:href="#m899610c169"
                   x="43.200001"
                   y="150.66"
                   style="stroke:#000000;stroke-width:0.8"
                   id="use877" /></g></g><g
               id="text_7-6"><!-- −0.175 --><g
                 transform="matrix(0.18,0,0,-0.18,-30.414063,157.49859)"
                 id="g894"><use
                   xlink:href="#DejaVuSans-2212-3"
                   id="use882" /><use
                   xlink:href="#DejaVuSans-30-6"
                   x="83.789062"
                   id="use884" /><use
                   xlink:href="#DejaVuSans-2e-5"
                   x="147.41211"
                   id="use886" /><use
                   xlink:href="#DejaVuSans-31-8"
                   x="179.19922"
                   id="use888" /><use
                   xlink:href="#DejaVuSans-37"
                   x="242.82227"
                   id="use890" /><use
                   xlink:href="#DejaVuSans-35-7"
                   x="306.44531"
                   id="use892" /></g></g></g><g
             id="ytick_3-2"><g
               id="line2d_7-2"><g
                 id="g900"><use
                   xlink:href="#m899610c169"
                   x="43.200001"
                   y="109.08"
                   style="stroke:#000000;stroke-width:0.8"
                   id="use898" /></g></g><g
               id="text_8-9"><!-- −0.170 --><g
                 transform="matrix(0.18,0,0,-0.18,-30.414063,115.91859)"
                 id="g915"><use
                   xlink:href="#DejaVuSans-2212-3"
                   id="use903" /><use
                   xlink:href="#DejaVuSans-30-6"
                   x="83.789062"
                   id="use905" /><use
                   xlink:href="#DejaVuSans-2e-5"
                   x="147.41211"
                   id="use907" /><use
                   xlink:href="#DejaVuSans-31-8"
                   x="179.19922"
                   id="use909" /><use
                   xlink:href="#DejaVuSans-37"
                   x="242.82227"
                   id="use911" /><use
                   xlink:href="#DejaVuSans-30-6"
                   x="306.44531"
                   id="use913" /></g></g></g><g
             id="ytick_4-5"><g
               id="line2d_8-3"><g
                 id="g921"><use
                   xlink:href="#m899610c169"
                   x="43.200001"
                   y="67.5"
                   style="stroke:#000000;stroke-width:0.8"
                   id="use919" /></g></g><g
               id="text_9-3"><!-- −0.165 --><g
                 transform="matrix(0.18,0,0,-0.18,-30.414063,74.338594)"
                 id="g939"><defs
                   id="defs925"><path
                     id="path1180"
                     d="m 2113,2584 q -425,0 -674,-291 -248,-290 -248,-796 0,-503 248,-796 249,-292 674,-292 425,0 673,292 248,293 248,796 0,506 -248,796 -248,291 -673,291 z m 1253,1979 v -575 q -238,112 -480,171 -242,60 -480,60 -625,0 -955,-422 -329,-422 -376,-1275 184,272 462,417 279,145 613,145 703,0 1111,-427 408,-426 408,-1160 0,-719 -425,-1154 -425,-434 -1131,-434 -810,0 -1238,620 -428,621 -428,1799 0,1106 525,1764 525,658 1409,658 238,0 480,-47 242,-47 505,-140 z"
                     transform="scale(0.015625)" /></defs><use
                   xlink:href="#DejaVuSans-2212-3"
                   id="use927" /><use
                   xlink:href="#DejaVuSans-30-6"
                   x="83.789062"
                   id="use929" /><use
                   xlink:href="#DejaVuSans-2e-5"
                   x="147.41211"
                   id="use931" /><use
                   xlink:href="#DejaVuSans-31-8"
                   x="179.19922"
                   id="use933" /><use
                   xlink:href="#DejaVuSans-36"
                   x="242.82227"
                   id="use935" /><use
                   xlink:href="#DejaVuSans-35-7"
                   x="306.44531"
                   id="use937" /></g></g></g><g
             id="ytick_5"><g
               id="line2d_9-3"><g
                 id="g945"><use
                   xlink:href="#m899610c169"
                   x="43.200001"
                   y="25.92"
                   style="stroke:#000000;stroke-width:0.8"
                   id="use943" /></g></g><g
               id="text_10-6"><!-- −0.160 --><g
                 transform="matrix(0.18,0,0,-0.18,-30.414063,32.758594)"
                 id="g960"><use
                   xlink:href="#DejaVuSans-2212-3"
                   id="use948" /><use
                   xlink:href="#DejaVuSans-30-6"
                   x="83.789062"
                   id="use950" /><use
                   xlink:href="#DejaVuSans-2e-5"
                   x="147.41211"
                   id="use952" /><use
                   xlink:href="#DejaVuSans-31-8"
                   x="179.19922"
                   id="use954" /><use
                   xlink:href="#DejaVuSans-36"
                   x="242.82227"
                   id="use956" /><use
                   xlink:href="#DejaVuSans-30-6"
                   x="306.44531"
                   id="use958" /></g></g></g><g
             id="text_11-2"><!-- phase/π --><g
               transform="matrix(0,-0.18,-0.18,0,-38.1575,144.68906)"
               id="g984"><defs
                 id="defs968"><path
                   id="path1204"
                   d="M 1159,525 V -1331 H 581 v 4831 h 578 v -531 q 182,312 458,463 277,152 661,152 638,0 1036,-506 399,-506 399,-1331 0,-825 -399,-1332 -398,-506 -1036,-506 -384,0 -661,152 -276,152 -458,464 z m 1957,1222 q 0,634 -261,995 -261,361 -717,361 -457,0 -718,-361 -261,-361 -261,-995 0,-634 261,-995 261,-361 718,-361 456,0 717,361 261,361 261,995 z"
                   transform="scale(0.015625)" /><path
                   id="path1206"
                   d="M 3513,2113 V 0 h -575 v 2094 q 0,497 -194,743 -194,247 -581,247 -466,0 -735,-297 -269,-296 -269,-809 V 0 H 581 v 4863 h 578 V 2956 q 207,316 486,472 280,156 646,156 603,0 912,-373 310,-373 310,-1098 z"
                   transform="scale(0.015625)" /><path
                   id="path1208"
                   d="m 2194,1759 q -697,0 -966,-159 -269,-159 -269,-544 0,-306 202,-486 202,-179 548,-179 479,0 768,339 289,339 289,901 v 128 z m 1147,238 V 0 H 2766 V 531 Q 2569,213 2275,61 1981,-91 1556,-91 q -537,0 -855,302 -317,302 -317,808 0,590 395,890 396,300 1180,300 h 807 v 57 q 0,397 -261,614 -261,217 -733,217 -300,0 -585,-72 -284,-72 -546,-216 v 532 q 315,122 612,182 297,61 578,61 760,0 1135,-394 375,-393 375,-1193 z"
                   transform="scale(0.015625)" /><path
                   id="path1210"
                   d="M 231,3500 H 3584 V 2925 H 3144 V 775 q 0,-225 76,-324 77,-98 249,-98 47,0 115,8 69,8 91,11 V -44 q -109,-40 -225,-59 -116,-19 -231,-19 -375,0 -519,205 -144,205 -144,755 V 2925 H 1266 V 0 H 678 V 2925 H 231 Z"
                   transform="scale(0.015625)" /></defs><use
                 xlink:href="#DejaVuSans-70-6"
                 id="use970" /><use
                 xlink:href="#DejaVuSans-68-0"
                 x="63.476562"
                 id="use972" /><use
                 xlink:href="#DejaVuSans-61-7"
                 x="126.85547"
                 id="use974" /><use
                 xlink:href="#DejaVuSans-73-7"
                 x="188.13477"
                 id="use976" /><use
                 xlink:href="#DejaVuSans-65-9"
                 x="240.23438"
                 id="use978" /><use
                 xlink:href="#DejaVuSans-2f-7"
                 x="301.75781"
                 id="use980" /><use
                 xlink:href="#DejaVuSans-3c0-8"
                 x="335.44922"
                 id="use982" /></g></g></g><g
           id="line2d_10-1"><path
             d="m 42.22393,-1 1.654226,31.77784 1.261685,20.812033 1.261685,17.691664 1.261685,14.482817 1.261686,11.29449 1.261685,8.248466 0.630842,3.06204 0.630843,2.41342 0.630843,1.82006 0.630842,1.29035 0.630843,0.83248 0.630843,0.45443 0.630842,0.16371 1.261685,-0.16096 L 300.6311,58.245901 v 0"
             clip-path="url(#p5712ebfe55)"
             style="fill:none;stroke:#1f77b4;stroke-width:1.1;stroke-dasharray:4.07, 1.76;stroke-dashoffset:0"
             id="path988" /></g><g
           id="line2d_11-9"><path
             d="m 42.212529,-1 1.665627,32.133166 1.261685,20.927487 1.261685,17.826523 1.261685,14.636293 1.261686,11.465116 1.261685,8.434225 0.630842,3.15984 0.630843,2.51408 0.630843,1.92322 0.630842,1.39567 0.630843,0.93962 0.630843,0.56302 0.630842,0.27338 1.261685,0.0602 244.766935,-11.93329 v 0"
             clip-path="url(#p5712ebfe55)"
             style="fill:none;stroke:#ff7f0e;stroke-width:1.1;stroke-dasharray:4.07, 1.76;stroke-dashoffset:0"
             id="path991" /></g><g
           id="line2d_12-0"><path
             d="m 42.212406,-1 1.66575,32.137101 1.261685,20.928841 1.261685,17.828145 1.261685,14.638188 1.261686,11.467283 1.261685,8.436642 0.630842,3.16115 0.630843,2.51543 0.630843,1.92464 0.630842,1.39711 0.630843,0.94111 0.630843,0.56453 0.630842,0.27493 1.261685,0.0633 244.766935,-11.32409 v 0"
             clip-path="url(#p5712ebfe55)"
             style="fill:none;stroke:#2ca02c;stroke-width:1.1;stroke-dasharray:4.07, 1.76;stroke-dashoffset:0"
             id="path994" /></g><g
           id="line2d_13-9"><path
             d="m 42.200707,-1 1.677449,32.508636 1.261685,21.054929 1.261685,17.978353 1.261685,14.812766 1.261686,11.66564 1.261685,8.657316 0.630842,3.27915 0.630843,2.63807 0.630843,2.05147 0.630842,1.5277 0.630843,1.07488 0.630843,0.70094 0.630842,0.41334 1.261685,0.34353 244.766935,43.20496 v 0"
             clip-path="url(#p5712ebfe55)"
             style="fill:none;stroke:#d62728;stroke-width:1.1;stroke-dasharray:4.07, 1.76;stroke-dashoffset:0"
             id="path997" /></g><g
           id="patch_3-8"><path
             d="M 43.2,192.24 V 25.92"
             style="fill:none;stroke:#000000;stroke-width:0.8;stroke-linecap:square;stroke-linejoin:miter"
             id="path1000" /></g><g
           id="patch_4-6"><path
             d="M 311.04,192.24 V 25.92"
             style="fill:none;stroke:#000000;stroke-width:0.8;stroke-linecap:square;stroke-linejoin:miter"
             id="path1003" /></g><g
           id="patch_5-9"><path
             d="M 43.2,192.24 H 311.04"
             style="fill:none;stroke:#000000;stroke-width:0.8;stroke-linecap:square;stroke-linejoin:miter"
             id="path1006" /></g><g
           id="patch_6-9"><path
             d="M 43.2,25.92 H 311.04"
             style="fill:none;stroke:#000000;stroke-width:0.8;stroke-linecap:square;stroke-linejoin:miter"
             id="path1009" /></g></g></g><rect
       style="fill:none;stroke:#000000;stroke-width:0.117598;stroke-dasharray:0.117598,0.117598;stroke-opacity:1;stroke-dashoffset:0"
       id="rect1293"
       width="38.015144"
       height="3.7732074"
       x="30.935978"
       y="34.661785" /><path
       style="fill:none;stroke:#000000;stroke-width:0.165;stroke-dasharray:0.16500001,0.16500001;stroke-opacity:1;stroke-dashoffset:0"
       d="m 30.933693,38.449116 -7.869177,8.744433"
       id="path2026"
       sodipodi:nodetypes="cc" /><path
       style="fill:none;stroke:#000000;stroke-width:0.165;stroke-dasharray:0.16500001,0.16500001;stroke-opacity:1;stroke-dashoffset:0"
       d="m 68.901436,38.423133 1.622756,8.770416"
       id="path2028"
       sodipodi:nodetypes="cc" /><text
       xml:space="preserve"
       style="font-size:3.175px;opacity:1;fill:#000000;stroke:#000000;stroke-width:0.165;stroke-dasharray:0.165, 0.165;stroke-dashoffset:0;stroke-opacity:1"
       x="11.354838"
       y="6.032258"
       id="text3169"><tspan
         sodipodi:role="line"
         id="tspan3167"
         style="font-style:normal;font-variant:normal;font-weight:bold;font-stretch:normal;font-family:sans-serif;-inkscape-font-specification:'sans-serif Bold';opacity:1;fill:#000000;stroke-width:0.165"
         x="11.354838"
         y="6.032258">a.</tspan></text></g></svg>
